<svg width="19" height="19" viewBox="0 0 19 19" fill="none" xmlns="http://www.w3.org/2000/svg">
<g id="LogoBaudo" clip-path="url(#clip0_1838_225)">
<path id="Vector" d="M11.0253 18.2552C11.0253 16.9286 11.0253 15.6294 11.0253 14.3282C11.0273 14.1362 11.0076 13.9445 10.9666 13.7569C10.8611 13.3016 10.5998 12.8975 10.2278 12.6145C9.85587 12.3315 9.39669 12.1875 8.92975 12.2073C8.45695 12.2348 8.00829 12.4253 7.66013 12.7464C7.31196 13.0674 7.08579 13.4992 7.0201 13.9682C7.00123 14.1109 6.99208 14.2547 6.9927 14.3987C6.9927 15.6144 6.9927 16.8301 6.9927 18.0458V18.2552H1.39876C1.04853 18.2552 0.942871 18.1534 0.942871 17.809C0.942871 15.0698 0.942871 12.3305 0.942871 9.59129V9.39563C3.60777 10.0472 6.30398 10.1744 9.00018 10.1744C11.6964 10.1744 14.3985 10.0452 17.0673 9.40346V17.7856C17.0673 18.1573 16.9675 18.2552 16.5957 18.2552H11.0253ZM2.61186 15.5707C2.48664 15.5707 2.37902 15.5707 2.27336 15.5707C2.23037 15.5717 2.188 15.5812 2.14872 15.5987C2.10944 15.6163 2.07403 15.6414 2.04454 15.6727C2.01505 15.704 1.99208 15.7409 1.97694 15.7811C1.96181 15.8214 1.95483 15.8642 1.95639 15.9072C1.95445 15.9514 1.96173 15.9955 1.97775 16.0368C1.99378 16.078 2.01822 16.1155 2.0495 16.1467C2.08078 16.178 2.11823 16.2025 2.15947 16.2185C2.2007 16.2345 2.24482 16.2418 2.28902 16.2398C3.51516 16.2398 4.74195 16.2398 5.9694 16.2398C6.01315 16.2428 6.05704 16.2367 6.09835 16.222C6.13967 16.2074 6.17754 16.1844 6.20963 16.1545C6.24171 16.1246 6.26733 16.0885 6.28491 16.0483C6.30248 16.0081 6.31164 15.9648 6.3118 15.9209C6.31457 15.8756 6.30782 15.8303 6.29199 15.7878C6.27616 15.7453 6.25161 15.7065 6.2199 15.6741C6.1882 15.6417 6.15005 15.6162 6.10792 15.5994C6.06578 15.5826 6.0206 15.5748 5.97527 15.5766C5.86961 15.5766 5.76395 15.5766 5.64656 15.5766V15.3437C5.64656 14.653 5.64656 13.9604 5.64656 13.2697C5.65404 13.1292 5.63208 12.9887 5.58209 12.8572C5.53209 12.7257 5.45516 12.6061 5.35624 12.5061C5.25731 12.406 5.13856 12.3278 5.00762 12.2763C4.87668 12.2249 4.73642 12.2014 4.59586 12.2073C4.28867 12.2073 3.98344 12.2073 3.67625 12.2073C3.53416 12.2007 3.39227 12.2241 3.25981 12.276C3.12736 12.3278 3.0073 12.407 2.90746 12.5083C2.80762 12.6096 2.73022 12.7308 2.6803 12.864C2.63038 12.9973 2.60906 13.1395 2.61773 13.2815V15.5707H2.61186ZM15.3885 15.5707V15.3515C15.3885 14.6472 15.3885 13.9428 15.3885 13.2404C15.3975 12.978 15.3024 12.7228 15.1238 12.5303C14.9453 12.3379 14.6979 12.2238 14.4356 12.2131C14.0635 12.1936 13.6906 12.1936 13.3184 12.2131C13.0565 12.2233 12.8092 12.3366 12.6304 12.5283C12.4515 12.7199 12.3557 12.9744 12.3636 13.2365C12.3636 13.8019 12.3636 14.3674 12.3636 14.9328V15.5687C12.2442 15.5687 12.1366 15.5687 12.031 15.5687C11.9869 15.5698 11.9435 15.5795 11.9032 15.5973C11.8628 15.6151 11.8264 15.6407 11.796 15.6725C11.7656 15.7044 11.7417 15.742 11.7258 15.7831C11.7099 15.8242 11.7022 15.868 11.7032 15.9121C11.7043 15.9562 11.714 15.9996 11.7318 16.0399C11.7496 16.0802 11.7752 16.1167 11.8071 16.1471C11.8389 16.1775 11.8765 16.2014 11.9176 16.2173C11.9587 16.2332 12.0026 16.2409 12.0466 16.2398C13.2675 16.2398 14.4885 16.2398 15.7094 16.2398C15.7551 16.2434 15.801 16.2374 15.8443 16.2223C15.8876 16.2072 15.9273 16.1834 15.9609 16.1522C15.9945 16.1211 16.0213 16.0834 16.0397 16.0414C16.058 15.9994 16.0675 15.954 16.0675 15.9082C16.0675 15.8624 16.058 15.817 16.0397 15.775C16.0213 15.733 15.9945 15.6953 15.9609 15.6642C15.9273 15.633 15.8876 15.6092 15.8443 15.5941C15.801 15.579 15.7551 15.573 15.7094 15.5766C15.6116 15.5648 15.5098 15.5687 15.3944 15.5687L15.3885 15.5707Z" fill="#00CFFF"/>
<path id="Vector_2" d="M5.32413 2.38909C5.08347 2.63562 4.8702 2.84302 4.66671 3.06021C3.36378 4.43977 2.44146 6.13405 1.99007 7.97716C1.96264 8.0691 1.9553 8.16585 1.96855 8.26087C1.98173 8.32961 2.01842 8.39161 2.07233 8.43624C2.12624 8.48087 2.19401 8.50534 2.26399 8.50545C2.34299 8.51084 2.42133 8.48805 2.4851 8.44112C2.54887 8.39418 2.59393 8.32616 2.61227 8.24913C2.73554 7.85781 2.84119 7.46649 2.98207 7.07517C3.70601 5.11856 4.86237 3.46914 6.59201 2.25996C6.78767 2.13082 6.97159 2.01538 7.16334 1.89016C6.89529 2.35583 6.60962 2.79998 6.3807 3.25978C5.76089 4.54943 5.33183 5.92232 5.10695 7.3354C5.0639 7.57802 5.02672 7.82259 4.98955 8.06521C4.97519 8.11137 4.97077 8.16004 4.97658 8.20803C4.98239 8.25602 4.99829 8.30224 5.02324 8.34364C5.0482 8.38504 5.08163 8.42069 5.12135 8.44824C5.16107 8.47579 5.20617 8.49462 5.25369 8.50349C5.44935 8.53871 5.61371 8.40175 5.64501 8.15913C5.79043 7.123 6.02412 6.1012 6.34352 5.10486C6.67892 4.01533 7.20928 2.99572 7.90881 2.0956C7.92397 2.06522 7.93186 2.03173 7.93186 1.99777C7.93186 1.96381 7.92397 1.93032 7.90881 1.89994C7.63097 1.44209 7.33552 0.99403 7.04399 0.540097C7.00657 0.494274 6.98205 0.439301 6.97296 0.380845C6.96387 0.32239 6.97053 0.262567 6.99226 0.207544C7.01399 0.152521 7.05 0.104289 7.09658 0.0678204C7.14316 0.0313515 7.19863 0.00796555 7.25726 7.32476e-05C7.32293 -0.014074 7.39138 -0.0071253 7.45287 0.0199285C7.51436 0.0469822 7.56573 0.0927595 7.59966 0.150732C7.87555 0.587056 8.15143 1.01751 8.41361 1.45188C8.43993 1.50943 8.44679 1.57399 8.43318 1.6358C8.25708 2.62975 8.05555 3.6198 7.9049 4.61767C7.73856 5.77963 7.65617 6.95206 7.65836 8.12587C7.65237 8.17219 7.65602 8.21925 7.6691 8.26409C7.68217 8.30893 7.70439 8.35058 7.73434 8.38642C7.7643 8.42225 7.80135 8.4515 7.84316 8.47233C7.88497 8.49315 7.93064 8.50509 7.97729 8.5074C8.17295 8.5074 8.31187 8.37044 8.32557 8.13174C8.37057 7.32757 8.37252 6.51753 8.46644 5.71924C8.60927 4.5981 8.80493 3.48479 8.97516 2.36757C8.98971 2.34042 9.00605 2.31428 9.02407 2.2893C9.09451 2.65715 9.16299 2.98781 9.21974 3.32239C9.48918 4.8265 9.639 6.3496 9.6678 7.87738C9.6678 7.98499 9.6678 8.09456 9.68345 8.20217C9.692 8.28545 9.73182 8.36238 9.79487 8.41745C9.85792 8.47252 9.93951 8.50162 10.0232 8.49889C10.1068 8.49616 10.1864 8.46179 10.2457 8.40273C10.305 8.34367 10.3397 8.26431 10.3428 8.18065C10.3428 7.88716 10.3428 7.59367 10.3291 7.29626C10.2536 5.39736 10.0054 3.50927 9.58758 1.65536C9.57241 1.57091 9.58693 1.4838 9.62867 1.40883C9.87324 1.01751 10.1296 0.614448 10.382 0.219213C10.5189 0.00594306 10.7028 -0.0547118 10.8789 0.0529017C11.055 0.160515 11.0863 0.358133 10.9435 0.585099C10.6578 1.02142 10.3702 1.45579 10.1061 1.89603C10.0905 1.92627 10.0823 1.95982 10.0823 1.99386C10.0823 2.0279 10.0905 2.06144 10.1061 2.09169C10.9152 3.13346 11.4971 4.3332 11.8142 5.61358C12.0373 6.44123 12.184 7.29039 12.3581 8.12978C12.4129 8.39001 12.5538 8.5211 12.7495 8.49371C12.9451 8.46632 13.0488 8.29805 13.0097 8.02021C12.7808 6.48036 12.4227 4.97181 11.7653 3.55719C11.5168 3.02695 11.1783 2.53388 10.8946 2.02516C10.8711 1.98603 10.8437 1.95081 10.8202 1.91364L10.8496 1.87842C11.1529 2.08777 11.4659 2.28735 11.7594 2.51236C13.4108 3.7822 14.4791 5.44531 15.1404 7.38431C15.2304 7.65237 15.3048 7.92434 15.387 8.19435C15.4594 8.43501 15.6257 8.55045 15.8194 8.49566C16.0131 8.44088 16.0972 8.25892 16.0444 8.02217C15.6644 6.45188 14.9392 4.98605 13.9215 3.73132C13.5732 3.30478 13.174 2.91738 12.7964 2.51431C12.7684 2.48701 12.7376 2.46275 12.7045 2.44192L12.7377 2.39692C13.0527 2.58084 13.3717 2.75498 13.6788 2.94868C15.6531 4.197 17.1362 5.85816 18.001 8.04369C18.016 8.0669 18.0259 8.09302 18.03 8.12033C18.0342 8.14764 18.0325 8.17552 18.0251 8.20213C18.0177 8.22875 18.0048 8.2535 17.9871 8.27475C17.9695 8.296 17.9475 8.31328 17.9227 8.32544C17.6351 8.55632 17.281 8.62089 16.9444 8.71676C15.9505 8.97865 14.9369 9.15926 13.9136 9.25679C11.8022 9.49443 9.67619 9.57683 7.55271 9.50332C5.62426 9.46644 3.70246 9.26548 1.8081 8.90264C1.37765 8.81851 0.958937 8.68154 0.536309 8.56806C0.51283 8.56806 0.491307 8.55241 0.467828 8.54458C-0.0526296 8.34892 -0.0917618 8.25891 0.123465 7.76194C0.928574 5.90571 2.25626 4.32376 3.94472 3.20891C4.33604 2.94086 4.75476 2.71389 5.16173 2.47127C5.20086 2.44779 5.24195 2.43018 5.32413 2.38909Z" fill="#00CFFF"/>
<path id="Vector_3" d="M10.3309 18.2492H7.6738C7.6738 18.1886 7.6738 18.1318 7.6738 18.0731C7.6738 16.8053 7.6738 15.5367 7.6738 14.2675C7.66682 14.0821 7.69843 13.8972 7.76665 13.7245C7.83486 13.5519 7.93818 13.3953 8.07007 13.2648C8.20196 13.1342 8.35953 13.0324 8.53281 12.9659C8.70609 12.8993 8.89129 12.8695 9.07669 12.8783C9.4051 12.89 9.71733 13.0238 9.95221 13.2537C10.1871 13.4835 10.3277 13.7927 10.3465 14.1208C10.3622 15.4904 10.3465 16.8385 10.3465 18.1984C10.3431 18.2158 10.3379 18.2329 10.3309 18.2492ZM9.50127 16.2398C9.56193 16.2398 9.62258 16.2398 9.68128 16.2398C9.72496 16.2398 9.76821 16.2312 9.80857 16.2145C9.84893 16.1978 9.88559 16.1733 9.91648 16.1424C9.94737 16.1115 9.97187 16.0748 9.98858 16.0345C10.0053 15.9941 10.0139 15.9509 10.0139 15.9072C10.014 15.8225 9.98115 15.7411 9.92239 15.6802C9.86363 15.6192 9.7835 15.5835 9.69889 15.5804C9.56866 15.5699 9.4378 15.5699 9.30757 15.5804C9.22435 15.5835 9.14563 15.619 9.08823 15.6793C9.03083 15.7396 8.9993 15.82 9.00038 15.9033C8.99881 15.9906 9.03188 16.0751 9.09237 16.1381C9.15287 16.2012 9.23586 16.2377 9.32322 16.2398C9.3917 16.2398 9.44257 16.2398 9.50127 16.2398Z" fill="#00CFFF"/>
<path id="Vector_4" d="M4.9541 15.557H3.30664C3.30664 15.4983 3.30664 15.4475 3.30664 15.3946C3.30664 14.6981 3.30664 14.0015 3.30664 13.305C3.30664 12.9861 3.41817 12.8784 3.74296 12.8765C4.03646 12.8765 4.32995 12.8765 4.62539 12.8765C4.67234 12.8724 4.71962 12.8785 4.76395 12.8945C4.80828 12.9105 4.8486 12.936 4.88211 12.9691C4.91562 13.0022 4.94151 13.0423 4.958 13.0864C4.97449 13.1306 4.98117 13.1778 4.97758 13.2248C4.97758 13.9761 4.97758 14.7255 4.97758 15.4768C4.97215 15.5042 4.96429 15.531 4.9541 15.557Z" fill="#00CFFF"/>
<path id="Vector_5" d="M14.7139 15.557H13.043V14.6472C13.043 14.1952 13.043 13.7452 13.043 13.2952C13.043 12.9939 13.1584 12.8784 13.4539 12.8784C13.7493 12.8784 14.0545 12.8784 14.3559 12.8784C14.3997 12.8729 14.4441 12.8767 14.4864 12.8894C14.5287 12.9021 14.5679 12.9235 14.6014 12.9523C14.6349 12.981 14.6621 13.0164 14.6811 13.0563C14.7002 13.0961 14.7107 13.1395 14.712 13.1836C14.7178 13.9682 14.7139 14.7548 14.7139 15.557Z" fill="#00CFFF"/>
</g>
<defs>
<clipPath id="clip0_1838_225">
<rect width="18.036" height="18.2552" fill="white"/>
</clipPath>
</defs>
</svg>
