<svg width="17" height="20" viewBox="0 0 17 20" fill="none" xmlns="http://www.w3.org/2000/svg">
<g id="LogoBaudo" clip-path="url(#clip0_1838_231)">
<path id="Vector" d="M8.42583 20C8.29255 19.8858 8.17128 19.7577 8.06398 19.6178C7.61889 18.8918 7.184 18.157 6.7525 17.4188C6.64972 17.2398 6.4817 17.1099 6.28533 17.0575C3.0304 16.0448 0.956156 13.8579 0.201884 10.4655C-0.744354 6.20113 1.71383 1.8447 5.77568 0.45682C6.85309 0.0635708 7.99708 -0.103095 9.13903 -0.0331763C10.281 0.0367419 11.3973 0.341803 12.4212 0.863704C13.445 1.38561 14.3551 2.11359 15.097 3.00399C15.8389 3.89438 16.3973 4.92884 16.7385 6.04529C17.0798 7.16174 17.1971 8.33718 17.0832 9.50109C16.9693 10.665 16.6266 11.7934 16.0757 12.8186C15.5248 13.8437 14.7771 14.7446 13.8774 15.467C12.9777 16.1894 11.9445 16.7186 10.8398 17.0227C10.7299 17.0511 10.6269 17.1023 10.5372 17.1731C10.4474 17.2439 10.3729 17.3329 10.3183 17.4344C9.90832 18.1616 9.48928 18.8831 9.06118 19.5987C8.9529 19.7452 8.82992 19.8797 8.69424 20H8.42583ZM2.29822 8.66943C2.30124 9.92419 2.66803 11.1499 3.35221 12.1915C4.0364 13.2332 5.00726 14.044 6.14207 14.5216C7.27688 14.9991 8.52469 15.1219 9.72775 14.8745C10.9308 14.6271 12.0351 14.0205 12.9011 13.1314C13.767 12.2423 14.3558 11.1107 14.5928 9.87957C14.8299 8.64844 14.7046 7.37309 14.2329 6.21472C13.7612 5.05636 12.9642 4.067 11.9427 3.37171C10.9212 2.67642 9.72094 2.30642 8.49378 2.30848C6.84758 2.31308 5.27047 2.98556 4.10882 4.17822C2.94717 5.37088 2.29596 6.98621 2.29822 8.66943Z" fill="#FF7A00"/>
<path id="Vector_2" d="M3.50488 8.05454C3.58473 6.25325 5.22238 3.63557 8.28194 3.4914C9.55797 3.42868 10.8094 3.86576 11.7812 4.71359C12.7531 5.56142 13.3722 6.7562 13.5126 8.05454H3.50488Z" fill="#FF7A00"/>
<path id="Vector_3" d="M13.5241 9.2618C13.4713 9.77882 13.3358 10.2835 13.1232 10.7556C13.1011 10.806 13.0246 10.8321 12.9686 10.8599C12.9377 10.866 12.906 10.866 12.8751 10.8599C9.95999 10.8599 7.04483 10.8599 4.12967 10.8599C4.0656 10.8702 4.00005 10.8559 3.94575 10.8196C3.89144 10.7833 3.85225 10.7277 3.83577 10.6636C3.65466 10.2136 3.53573 9.74009 3.48242 9.25659L13.5241 9.2618Z" fill="#FF7A00"/>
<path id="Vector_4" d="M12.2978 12.0497C10.3815 14.4016 6.67642 14.4363 4.7041 12.0497H12.2978Z" fill="#FF7A00"/>
</g>
<defs>
<clipPath id="clip0_1838_231">
<rect width="17" height="20" fill="white"/>
</clipPath>
</defs>
</svg>
