<svg width="72" height="90" viewBox="0 0 72 90" fill="none" xmlns="http://www.w3.org/2000/svg">
<path d="M0 0H72V54C72 73.8823 55.8823 90 36 90V90C16.1177 90 0 73.8822 0 54V0Z" fill="#FCCA2E"/>
<g clip-path="url(#clip0_2566_10)">
<path d="M30.2655 43.0836C30.1783 41.6669 30.2242 40.2449 30.4026 38.8371C30.6414 36.4589 30.774 34.0581 31.4462 31.7386C31.7148 30.6102 32.2371 29.5612 32.9717 28.6744C33.7334 27.8866 34.7134 27.3558 35.7796 27.1536C37.7293 26.7259 39.7642 27.0119 41.5281 27.9614C42.6771 28.6296 43.6322 29.5966 44.2962 30.7638C45.2328 32.2802 45.6869 34.0551 45.5962 35.8452C45.5343 36.9243 45.5343 38.0062 45.5962 39.0853C45.7036 40.1119 45.7317 41.1455 45.6802 42.1765C45.5652 43.6748 45.6139 45.1865 45.238 46.6577C44.8154 48.0649 43.9862 49.3091 42.859 50.2272C42.3033 50.8258 41.5668 51.2168 40.7675 51.3374C40.2579 51.3561 39.754 51.4535 39.2729 51.6262C38.7467 51.8383 38.2426 52.1091 37.712 52.3031C36.6596 52.6822 35.7177 52.1948 34.767 51.8518C33.3097 51.2596 32.0625 50.2306 31.1897 48.9005C30.6679 48.1694 30.5618 47.2398 30.3805 46.3643C30.1506 45.2723 30.3098 44.1757 30.2655 43.0836ZM42.5716 41.1115C42.6831 38.84 42.4428 36.5647 41.8597 34.3695C41.4485 32.8668 41.1257 31.3189 40.2015 30.0057C39.5869 29.1257 38.8749 28.503 37.7076 28.6022C37.1795 28.6735 36.6481 28.7157 36.1157 28.7286C35.8102 28.7078 35.5044 28.764 35.2253 28.8923C34.9461 29.0206 34.7022 29.217 34.515 29.4642C33.8869 30.2086 33.4211 31.0808 33.1486 32.0229C32.572 34.1579 32.2105 36.3474 32.0697 38.5573C31.9149 41.3146 31.9901 44.0764 33.0027 46.6802C33.5377 48.0656 33.9755 49.5323 35.3021 50.4213C35.8548 50.7913 36.4031 51.2516 37.1018 51.1659C37.8338 51.0606 38.5588 50.9099 39.2729 50.7146C39.8947 50.6102 40.4627 50.2917 40.8825 49.8121C41.8125 48.4908 42.3498 46.9241 42.4301 45.2993C42.6086 43.9112 42.6559 42.5089 42.5716 41.1115V41.1115ZM43.1907 36.2197C43.144 36.5716 43.144 36.9283 43.1907 37.2802C43.3805 37.9794 43.4698 38.7029 43.456 39.4283C43.456 40.913 43.456 42.3977 43.456 43.8778C43.439 44.4001 43.3753 44.9197 43.2659 45.4302C43.2261 45.6243 43.1465 45.8273 43.341 45.8815C43.5356 45.9356 43.5887 45.6558 43.6373 45.5205C43.9331 44.6333 44.1058 43.7082 44.1502 42.7722C44.2431 41.4184 43.9955 40.0646 43.8849 38.7333C43.8186 37.8894 43.7788 36.9914 43.1995 36.2197H43.1907ZM32.9275 49.0765C32.7153 48.5575 32.4853 48.0386 32.2996 47.5106C31.9326 46.5403 31.8574 45.4934 31.5656 44.5096C31.5213 44.3742 31.4992 44.1396 31.3091 44.1621C31.119 44.1847 31.0968 44.4058 31.0924 44.6134C31.0972 45.5343 31.2465 46.4484 31.5346 47.321C31.6203 47.7027 31.7903 48.0592 32.0318 48.3635C32.2732 48.6677 32.5796 48.9116 32.9275 49.0765V49.0765ZM44.3979 35.9038C44.6726 35.2668 44.7087 34.5491 44.4996 33.8866C44.3759 33.1414 44.097 32.432 43.6815 31.8063C43.5887 31.6754 43.4914 31.6483 43.3941 31.698C43.2968 31.7476 43.3631 31.8514 43.3941 31.9507C43.7302 33.2458 44.0618 34.5997 44.3979 35.9038ZM42.3063 32.1492C42.3911 31.7068 42.3107 31.248 42.0808 30.8631C42.0808 30.809 42.01 30.7097 41.9083 30.7548C41.89 30.7609 41.8731 30.7706 41.8586 30.7836C41.8441 30.7966 41.8324 30.8124 41.8241 30.8301C41.8158 30.8479 41.8112 30.8672 41.8105 30.8868C41.8097 30.9064 41.813 30.926 41.8199 30.9443C41.871 31.3838 42.0392 31.8006 42.3063 32.1492Z" fill="#1A1A1A"/>
<path d="M23.9997 52.9845C23.9997 51.2155 24.0262 49.4466 23.9997 47.6866C23.9839 47.5819 23.9902 47.4749 24.0184 47.373C24.0466 47.271 24.0958 47.1764 24.1629 47.0955C24.23 47.0147 24.3133 46.9494 24.4072 46.9043C24.5011 46.8591 24.6034 46.835 24.7072 46.8337C25.1494 46.775 25.5518 46.757 25.7021 47.3797C25.8815 48.0947 25.9882 48.8266 26.0205 49.5639C26.0736 51.1614 26.2902 52.7589 26.1487 54.3564C26.0868 55.0378 26.0691 55.7102 26.0382 56.4052C26.0382 56.7617 26.1487 56.8565 26.4804 56.8565C28.1165 56.8565 29.7526 56.8835 31.3842 56.8565C31.4917 56.8391 31.6015 56.8453 31.7064 56.8747C31.8113 56.9041 31.9088 56.9559 31.9925 57.0268C32.0762 57.0977 32.1441 57.186 32.1917 57.2858C32.2393 57.3856 32.2656 57.4946 32.2686 57.6056C32.3058 57.7036 32.3226 57.8085 32.3179 57.9136C32.3132 58.0186 32.2872 58.1215 32.2414 58.2157C32.1957 58.3099 32.1312 58.3934 32.0522 58.4608C31.9731 58.5283 31.8812 58.5782 31.7822 58.6074C30.4556 59.1354 29.0937 59.0587 27.7141 59.0316C26.5953 59.0316 25.5031 58.8872 24.3844 58.833C24.0262 58.833 24.013 58.6706 24.0174 58.3818C23.9997 56.5631 23.9997 54.7716 23.9997 52.9845ZM24.8841 54.4106C25.3705 53.0071 24.8266 51.5991 24.8841 50.1957V54.4106ZM28.3774 57.8267C29.0802 58.0221 29.8245 57.997 30.5131 57.7545C29.7997 57.6486 29.0735 57.6731 28.3685 57.8267H28.3774Z" fill="#1A1A1A"/>
<path d="M50.9734 21.251C50.9734 22.4108 50.9734 23.566 50.9734 24.7258C50.9734 25.1229 50.9071 25.502 50.4782 25.5426C50.0493 25.5832 49.5098 25.7728 49.2887 25.0913C49.1024 24.5483 48.9792 23.9849 48.9217 23.4126C48.8156 22.2167 48.9482 21.0344 48.9526 19.843C48.9526 19.2744 48.7758 19.1887 48.2805 19.2022C46.7859 19.2293 45.2913 19.2022 43.7967 19.2022C43.4386 19.2022 43.0494 19.2022 42.9522 18.7509C42.7664 17.8845 42.8504 17.7311 43.4784 17.4693C44.7138 16.9788 46.0611 16.8598 47.3608 17.1264C47.5558 17.172 47.7583 17.172 47.9533 17.1264C48.6696 16.8782 49.3462 17.1264 50.0316 17.2572C50.1068 17.2572 50.1908 17.3249 50.2571 17.3114C51.2122 17.0722 50.9734 17.7717 50.9734 18.2636C50.9734 19.2564 50.9734 20.2537 50.9734 21.251ZM46.7948 18.1959C46.0209 17.8213 45.3709 18.2455 44.7032 18.2184C45.3874 18.4208 46.1149 18.4129 46.7948 18.1959V18.1959ZM50.1244 21.6436C49.753 22.4649 49.9255 23.3043 50.1244 24.1437V21.6436Z" fill="#1A1A1A"/>
<path d="M37.3367 25.8089C36.952 25.8495 36.4523 25.8314 36.2843 25.3576C36.1162 24.8838 36.5673 24.5002 36.9343 24.2475C37.9246 23.5377 38.9987 22.9585 40.1313 22.5236C40.5735 22.3656 40.7504 22.5236 40.6752 22.9749C40.4629 24.2204 38.6544 25.8089 37.3367 25.8089Z" fill="#1A1A1A"/>
</g>
<defs>
<clipPath id="clip0_2566_10">
<rect width="27" height="42" fill="white" transform="translate(24 17)"/>
</clipPath>
</defs>
</svg>
