<svg width="20" height="16" viewBox="0 0 20 16" fill="none" xmlns="http://www.w3.org/2000/svg">
<g id="inTDbv">
<path id="Vector" d="M19.204 7.26975V8.3983C19.1896 8.45982 19.179 8.52207 19.1721 8.58473C19.1303 9.28787 19.0115 9.9851 18.8176 10.6654C18.2148 12.7827 16.9632 14.4172 14.8359 15.4093C13.8809 15.8997 12.7829 16.0877 11.7051 15.9453C11.0982 15.8381 10.4825 15.7802 9.86496 15.7722C9.04948 15.7722 8.234 15.882 7.41851 15.9486C6.83955 16.0345 6.24833 16.0142 5.67763 15.8887C4.59998 15.6124 3.60363 15.1089 2.76437 14.4167C1.92511 13.7244 1.26504 12.8616 0.834364 11.8938C0.395692 10.9146 0.132141 9.87419 0.054336 8.81443C-0.0503127 7.96752 -0.00357722 7.11014 0.192614 6.27769C0.400996 5.4031 0.905223 4.61531 1.62993 4.03207C2.35464 3.44882 3.26092 3.10144 4.2133 3.04185C5.22351 2.97116 6.23923 3.02601 7.23414 3.20497C7.89362 3.30484 8.54955 3.42802 9.21258 3.49793C10.012 3.53232 10.8124 3.45604 11.5881 3.27155C12.6887 3.05233 13.8159 2.97505 14.9387 3.04185C15.9092 3.08994 16.8356 3.43788 17.5736 4.03153C18.3117 4.62518 18.8201 5.43124 19.0197 6.3243C19.1012 6.6339 19.1508 6.95349 19.204 7.26975Z" fill="#1DD16A"/>
<path id="Vector_2" d="M9.5491 2.96542C8.97826 2.87887 8.37551 2.779 7.77631 2.69577C7.11683 2.60588 6.4538 2.52932 5.79078 2.45608C5.63477 2.45608 5.52486 2.40947 5.47168 2.253C5.40746 2.0935 5.33286 1.93785 5.24831 1.78694C5.18883 1.68975 5.16397 1.57725 5.17737 1.46587C5.19076 1.35448 5.2417 1.25003 5.32276 1.16773C5.40243 1.08349 5.50834 1.02496 5.62546 1.00046C5.74257 0.97596 5.86493 0.986729 5.97515 1.03124C6.62399 1.23098 7.27993 1.42407 7.92877 1.63047C7.95278 1.64205 7.97909 1.64883 8.00603 1.65037C8.03298 1.65191 8.05997 1.64818 8.0853 1.63942C8.11063 1.63066 8.13374 1.61705 8.15318 1.59947C8.17262 1.58188 8.18796 1.5607 8.19823 1.53726C8.49252 1.12445 8.79389 0.714981 9.09526 0.302178C9.14253 0.211532 9.21593 0.135158 9.30713 0.0817386C9.39832 0.0283197 9.50366 0 9.61115 0C9.71864 0 9.82397 0.0283197 9.91517 0.0817386C10.0064 0.135158 10.0798 0.211532 10.127 0.302178C10.4319 0.71831 10.7369 1.13444 11.0347 1.5539C11.0459 1.57525 11.0616 1.59423 11.0809 1.60973C11.1001 1.62522 11.1225 1.63689 11.1467 1.64405C11.1709 1.6512 11.1964 1.65368 11.2216 1.65135C11.2468 1.64902 11.2713 1.64192 11.2935 1.63047C11.9388 1.43073 12.5877 1.24097 13.2294 1.0379C13.341 0.989853 13.466 0.976215 13.5864 0.99894C13.7067 1.02166 13.8164 1.07959 13.8995 1.1644C13.9822 1.2502 14.0331 1.35882 14.0446 1.47403C14.0561 1.58924 14.0276 1.70485 13.9633 1.80358C13.8847 1.94341 13.816 2.08799 13.7577 2.23636C13.6974 2.39948 13.5946 2.44276 13.4031 2.46274C12.5558 2.56261 11.7119 2.68245 10.8645 2.79564L9.5491 2.96542Z" fill="#1DD16A"/>
</g>
</svg>
