<?xml version="1.0" encoding="UTF-8"?>
<svg id="Layer_2" data-name="Layer 2" xmlns="http://www.w3.org/2000/svg" xmlns:xlink="http://www.w3.org/1999/xlink" viewBox="0 0 88.08 175.42">
  <defs>
    <style>
      .cls-1, .cls-2 {
        fill: none;
      }

      .cls-3 {
        fill: #f79e1b;
      }

      .cls-4 {
        fill: #0079c1;
      }

      .cls-5 {
        fill: #f79410;
      }

      .cls-6 {
        fill: #eb001b;
      }

      .cls-7 {
        fill: #fff;
      }

      .cls-8 {
        fill: #f2ae14;
      }

      .cls-9 {
        fill: #ff5f00;
      }

      .cls-10 {
        fill: #231f20;
      }

      .cls-11 {
        fill: #1a1f71;
      }

      .cls-2 {
        clip-path: url(#clippath);
      }
    </style>
    <clipPath id="clippath">
      <rect class="cls-1" x="4.52" width="83.56" height="65.09"/>
    </clipPath>
  </defs>
  <g id="Layer_1-2" data-name="Layer 1">
    <g class="cls-2">
      <g>
        <path class="cls-10" d="m86.42,64.2v.17h.16s.06,0,.08-.02c.02-.01.03-.04.03-.06,0-.02-.01-.05-.03-.06-.02-.01-.05-.02-.08-.02h-.16Zm.16-.12c.07,0,.13.01.19.05.04.04.07.09.07.15,0,.05-.02.1-.05.13-.04.04-.09.06-.15.06l.21.24h-.16l-.19-.24h-.06v.24h-.13v-.63h.29Zm-.04.85c.07,0,.14-.01.2-.04.06-.03.12-.07.17-.11.05-.05.09-.1.11-.17.05-.13.05-.28,0-.41-.03-.06-.07-.12-.11-.17-.05-.05-.1-.09-.17-.11-.06-.03-.13-.04-.2-.04-.07,0-.14.01-.21.04-.06.03-.12.06-.17.11-.15.16-.2.39-.11.59.03.06.06.12.11.17.05.05.11.09.17.11.07.03.14.04.21.04h0Zm0-1.21c.18,0,.36.07.49.2.06.06.11.14.15.22.07.17.07.36,0,.53-.03.08-.09.15-.15.22-.06.06-.14.11-.22.15-.09.04-.18.05-.27.05-.09,0-.19-.02-.27-.05-.08-.03-.16-.08-.22-.15-.06-.06-.11-.14-.15-.22-.07-.17-.07-.36,0-.53.03-.08.08-.15.15-.22.06-.06.14-.11.22-.15.09-.04.18-.06.27-.05h0Zm-63.96-2.44c0-1.21.79-2.2,2.08-2.2s2.07.95,2.07,2.2-.83,2.2-2.07,2.2-2.08-.99-2.08-2.2Zm5.55,0v-3.43h-1.49v.84c-.47-.62-1.19-1.01-2.17-1.01-1.92,0-3.43,1.51-3.43,3.6s1.51,3.6,3.43,3.6c.97,0,1.69-.39,2.17-1.01v.83h1.49v-3.43h0Zm50.38,0c0-1.21.79-2.2,2.08-2.2s2.07.95,2.07,2.2-.83,2.2-2.07,2.2-2.08-.99-2.08-2.2Zm5.55,0v-6.19h-1.49v3.59c-.47-.62-1.19-1.01-2.17-1.01-1.92,0-3.43,1.51-3.43,3.6s1.51,3.6,3.43,3.6c.98,0,1.69-.39,2.17-1.01v.83h1.49v-3.43Zm-37.42-2.27c.96,0,1.58.6,1.74,1.66h-3.56c.16-.99.76-1.66,1.82-1.66h0Zm.03-1.34c-2.01,0-3.42,1.46-3.42,3.6s1.46,3.61,3.51,3.61c1.03,0,1.98-.26,2.81-.96l-.73-1.11c-.57.46-1.31.72-1.99.72-.96,0-1.84-.45-2.05-1.68h5.09c.01-.19.03-.37.03-.57-.02-2.14-1.34-3.6-3.26-3.6h0Zm18,3.6c0-1.21.79-2.2,2.08-2.2s2.07.95,2.07,2.2-.83,2.2-2.07,2.2-2.08-.99-2.08-2.2h0Zm5.55,0v-3.43h-1.49v.84c-.47-.62-1.19-1.01-2.17-1.01-1.92,0-3.43,1.51-3.43,3.6s1.51,3.6,3.43,3.6c.98,0,1.69-.39,2.17-1.01v.83h1.49v-3.44h0Zm-13.97,0c0,2.08,1.45,3.6,3.66,3.6,1.03,0,1.72-.23,2.46-.82l-.72-1.21c-.56.4-1.15.62-1.8.62-1.19-.01-2.07-.88-2.07-2.2s.88-2.18,2.07-2.2c.65,0,1.23.22,1.8.62l.72-1.21c-.75-.59-1.43-.82-2.46-.82-2.21,0-3.66,1.52-3.66,3.6Zm19.22-3.6c-.86,0-1.42.4-1.81,1.01v-.83h-1.48v6.86h1.49v-3.85c0-1.14.49-1.77,1.46-1.77.32,0,.64.05.93.17l.46-1.41c-.33-.13-.76-.19-1.06-.19h0Zm-39.96.72c-.72-.47-1.71-.72-2.8-.72-1.74,0-2.86.83-2.86,2.2,0,1.12.83,1.81,2.37,2.02l.7.1c.82.11,1.2.33,1.2.72,0,.53-.54.83-1.56.83s-1.78-.33-2.28-.72l-.7,1.16c.82.6,1.85.89,2.97.89,1.98,0,3.13-.93,3.13-2.24,0-1.21-.9-1.84-2.4-2.05l-.7-.1c-.65-.08-1.16-.21-1.16-.67,0-.5.49-.8,1.31-.8.87,0,1.72.33,2.14.59l.65-1.21h0Zm19.24-.72c-.86,0-1.42.4-1.81,1.01v-.83h-1.48v6.86h1.49v-3.85c0-1.14.49-1.77,1.46-1.77.32,0,.64.05.93.17l.46-1.41c-.33-.13-.76-.19-1.06-.19h0Zm-12.72.17h-2.44v-2.08h-1.51v2.08h-1.39v1.36h1.39v3.13c0,1.59.62,2.54,2.38,2.54.65,0,1.39-.2,1.87-.53l-.43-1.28c-.44.26-.93.39-1.32.39-.75,0-.99-.46-.99-1.15v-3.1h2.44v-1.37Zm-22.29,6.87v-4.31c0-1.62-1.03-2.71-2.7-2.73-.88-.01-1.78.26-2.41,1.22-.47-.76-1.22-1.22-2.27-1.22-.73,0-1.45.22-2.01,1.02v-.85h-1.49v6.86h1.5v-3.81c0-1.19.66-1.82,1.68-1.82s1.49.65,1.49,1.81v3.82h1.51v-3.81c0-1.19.69-1.82,1.68-1.82s1.5.65,1.5,1.81v3.82h1.51Z"/>
        <path class="cls-5" d="m87.27,41.88v-1h-.26l-.3.69-.3-.69h-.26v1h.19v-.76l.28.65h.19l.28-.65v.76h.18Zm-1.66,0v-.83h.33v-.17h-.85v.17h.33v.83h.19Z"/>
        <path class="cls-9" d="m57.6,46.18h-22.59V5.53h22.59v40.65h0Z"/>
        <path class="cls-6" d="m36.43,25.85c0-8.25,3.86-15.59,9.86-20.33C41.75,1.94,36.13,0,30.34,0,16.08,0,4.52,11.58,4.52,25.85s11.56,25.85,25.82,25.85c5.79,0,11.41-1.94,15.96-5.53-6-4.73-9.86-12.08-9.86-20.33Z"/>
        <path class="cls-3" d="m88.08,25.85c0,14.28-11.56,25.85-25.82,25.85-5.79,0-11.41-1.94-15.96-5.53,6.01-4.73,9.86-12.08,9.86-20.33s-3.86-15.59-9.86-20.33C50.84,1.94,56.47,0,62.26,0,76.52,0,88.08,11.58,88.08,25.85"/>
      </g>
    </g>
    <g>
      <path class="cls-7" d="m85.19,170.96H20.57v-64.61h64.61v64.61Z"/>
      <path class="cls-4" d="m85.19,175.42v-11.46h-8.66l-4.46-4.97-4.48,4.97h-28.54v-23.14h-9.21l11.43-26.06h11.02l3.93,8.93v-8.93h13.64l2.37,6.73,2.38-6.73h10.57v-11.65H13.43v72.3h71.75Zm-7.2-14.35h7.2l-9.52-10.18,9.52-10.06h-7.08l-5.88,6.47-5.82-6.47h-7.2l9.47,10.12-9.47,10.12h7l5.91-6.53,5.88,6.53Zm1.69-10.17l5.51,5.91v-11.77l-5.51,5.86h0Zm-32.09,5.48v-3.15h11.33v-4.57h-11.33v-3.15h11.62v-4.68h-17.1v20.23h17.1v-4.68h-11.62Zm32.18-18.49h5.42v-20.24h-8.43l-4.5,12.6-4.48-12.6h-8.58v20.23h5.42v-14.16l5.16,14.16h4.82l5.16-14.19v14.19h0,0Zm-26.74,0h6.17l-8.86-20.23h-7.06l-8.86,20.23h6.02l1.66-4.05h9.24l1.69,4.05h0Zm-3.58-8.59h-5.45l2.73-6.62,2.73,6.62h0Z"/>
    </g>
    <path class="cls-11" d="m31.79,96.25l4.34-25.39h6.95l-4.35,25.39h-6.95,0Zm32.05-24.84c-1.38-.51-3.53-1.07-6.23-1.07-6.87,0-11.7,3.44-11.75,8.38-.04,3.65,3.45,5.68,6.09,6.9,2.71,1.25,3.61,2.04,3.6,3.15-.02,1.7-2.16,2.48-4.16,2.48-2.78,0-4.26-.39-6.54-1.33l-.9-.4-.98,5.68c1.62.71,4.62,1.32,7.74,1.35,7.31,0,12.05-3.4,12.1-8.67.03-2.89-1.83-5.09-5.84-6.9-2.43-1.18-3.92-1.96-3.9-3.15,0-1.06,1.26-2.18,3.98-2.18,2.27-.04,3.92.46,5.2.97l.62.29.94-5.5h0Zm17.88-.55h-5.37c-1.66,0-2.91.45-3.64,2.1l-10.32,23.27h7.3s1.19-3.13,1.46-3.82c.8,0,7.89.01,8.9.01.21.89.85,3.8.85,3.8h6.45l-5.63-25.37h0Zm-8.52,16.4c.57-1.46,2.77-7.1,2.77-7.1-.04.07.57-1.47.92-2.42l.47,2.19s1.33,6.06,1.61,7.33h-5.77,0Zm-47.32-16.39l-6.8,17.31-.73-3.52c-1.27-4.06-5.21-8.45-9.63-10.65l6.22,22.2h7.35s10.94-25.35,10.94-25.35h-7.36Z"/>
    <path class="cls-8" d="m10.85,69.09H.09l-.09.52c8.38,2.09,13.92,7.14,16.22,13.2l-2.34-11.6c-.4-1.6-1.58-2.07-3.03-2.13"/>
  </g>
</svg>